# xmcd
#
# Track frame offsets: 
#        150
#        23962
#        44802
#        69841
#        92023
#        121485
#        154399
#        174961
#        206909
#        242154
#
# Disc length: 3719 seconds
#
# Revision: 1
# Processed by: cddbd v1.5.2PL0 Copyright (c) Steve Scherf et al.
# Submitted via: ExactAudioCopy v0.99pb4
#
DISCID=8b0e850a
DTITLE=Bruce Springsteen - Madrid, 6-2-05[CD2]
DYEAR=2005
DGENRE=Rock and Roll
TTITLE0=The Rising
TTITLE1=Further On (Up The Road)
TTITLE2=Jesus Was An Only Son
TTITLE3=Leah
TTITLE4=The Hitter
TTITLE5=Matamoros Banks
TTITLE6=Ramrod
TTITLE7=Land Of Hope And Dreams
TTITLE8=The Promised Land
TTITLE9=Dream Baby Dream
EXTD=
EXTT0=
EXTT1=
EXTT2=
EXTT3=
EXTT4=
EXTT5=
EXTT6=
EXTT7=
EXTT8=
EXTT9=
PLAYORDER=
